<svg width="1859.0908" height="1159.8485" xmlns="http://www.w3.org/2000/svg">
 <metadata id="metadata7">image/svg+xml</metadata>

 <defs>
    <filter id="blur">
        <feGaussianBlur stdDeviation="45" />
    </filter>
  </defs>

 <g filter="url(#blur)">
  <title>Layer 1</title>
  <g id="layer1">
   <rect y="2217.2859" x="-1439.3611" height="1159.8485" width="1340.9091" id="use4484" transform="translate(-98.452 -2217.29) scale(-1 1)" fill="#477a8d" fill-rule="nonzero"/>
   <path d="m1390.90907,0.00001l468.1818,0l0,1159.8485l-592.1818,0l124,-1159.8485z" id="rect4244" fill="#416da9" fill-rule="nonzero"/>
   <path id="path4232" d="m1231.62617,1099.34571c-25.2829,-2.3761 -102.0247,-9.1353 -133.7421,78.233l13.2867,34.8487c13.5057,-15.8261 36.4701,-26.6114 64.3694,-27.6037c-6.4475,-33.5779 14.2635,-71.4505 56.086,-85.478z" fill="#1890ff" fill-rule="nonzero"/>
   <path id="path4234" d="m1227.75107,1100.15491c-17.2653,5.0422 -58.9381,27.0748 -53.1389,83.8274l20.7047,15.6221c2.9115,-13.8931 10.8782,-23.8097 27.2593,-33.5279c-14.8416,-17.9973 -15.2801,-43.8449 5.1749,-65.9216z" fill="#ef476f" fill-rule="nonzero"/>
   <path id="path4236" d="m1238.89557,1101.75781c-17.204,-12.8459 -129.1017,-76.6512 -243.5254,13.8431l-8.7925,57.0712c30.7044,-11.874 68.1336,-16.1828 111.3202,5.6751c12.6748,-38.9552 67.2696,-87.6206 140.9977,-76.5894z" fill="#a6c4db" fill-rule="nonzero"/>
   <path id="path4238" d="m1255.89997,1184.74991c70.4148,-131.6458 228.143,-557.6283 -118.1926,-847.7331l-234.2925,-10.6602c43.3102,102.2015 78.9618,225.053 6.1107,370.6405c198.2742,49.1759 361.4602,261.5018 346.3744,487.7528z" fill="#FF00C8" fill-rule="nonzero"/>
   <path id="path4240" d="m1244.55117,1107.57131c-27.4971,-52.6764 -137.0824,-193.5207 -337.7992,-142.0545l-55.65061,69.8442c48.26252,6.3911 106.68021,28.8225 144.12101,82.3526c44.096,-41.5402 168.5752,-74.4335 249.3288,-10.1423z" fill="#a3e7e0" fill-rule="nonzero"/>
   <path id="path4242" d="m1257.05617,1148.90001c14.153,-109.998 -39.703,-375.7755 -347.3654,-452.233l-130.76813,58.3255c59.67365,39.8763 121.72179,112.913 127.44863,210.9765c125.2935,-35.7698 302.4716,30.5201 350.6849,182.931z" fill="#79ddcc" fill-rule="nonzero"/>
   <path id="path4232-6" d="m1254.99677,112.16291c-24.7658,-5.615 -99.9963,-22.2092 -142.7101,60.3423l8.6842,36.2705c15.4329,-13.9533 39.5959,-21.6887 67.3904,-19.0768c-2.0659,-34.1288 23.3538,-69.0161 66.6355,-77.536z" fill="#1890ff" fill-rule="nonzero"/>
   <path id="path4234-1" d="m1251.04967,112.46591c-17.7712,2.7748 -61.9362,19.2523 -63.5003,76.279l18.5185,18.1605c4.6779,-13.402 13.8563,-22.209 31.3534,-29.7348c-12.3982,-19.7601 -9.5015,-45.4486 13.6284,-64.7047z" fill="#ef476f" fill-rule="nonzero"/>
   <path id="path4236-0" d="m1261.89457,115.49181c-15.4047,-14.9562 -118.1452,-92.6519 -243.2783,-17.6606l-16.0751,55.4619c31.9787,-7.8174 69.6511,-7.266 109.6601,19.9759c17.5901,-36.9966 78.002,-78.2193 149.6933,-57.7772z" fill="#a6c4db" fill-rule="nonzero"/>
   <path id="path4238-6" d="m1268.06027,199.98341c86.7954,-121.4719 298.1132,-523.5714 -7.9416,-855.8959l-230.9642,-40.7695c29.7761,106.9313 49.2958,233.3532 -41.7125,368.3365c190.282,74.3215 324.7399,305.9095 280.6183,528.3289z" fill="#4cb5bc" fill-rule="nonzero"/>
   <path id="path4240-3" d="m1266.75377,121.98581c-20.4783,-55.7812 -110.9959,-209.5752 -316.672,-184.4089l-64.18875,62.0888c47.03615,12.5584 102.07545,42.3322 132.30435,100.2416c49.0824,-35.5102 176.7629,-52.0849 248.5564,22.0785z" fill="#a3e7e0" fill-rule="nonzero"/>
   <path id="path4242-2" d="m1273.82747,164.58151c28.2127,-107.2563 9.0623,-377.7584 -286.1791,-493.233l-137.19504,40.9841c54.03624,47.2351 106.15304,127.66 99.19254,225.6437c128.8588,-19.3222 296.0149,69.2514 324.1816,226.6052z" fill="#79ddcc" fill-rule="nonzero"/>
   <path d="m1227.76437,1207.27271c204.328,-133.3503 711.3432,-560.2977 489.0287,-1201.3329l-308.624,-217.4797c2.5811,104.4088 -108.0005,459.2064 -273.1292,549.4932c244.8206,236.2613 273.7218,591.7396 92.7245,869.3194z" id="path3094-3-5" fill="#3996b1" fill-rule="nonzero"/>
   <rect transform="translate(-98.452 -2217.29) scale(-1 1)" id="use4488" width="379.54544" height="388.63644" x="-470.2702" y="2210.4678" fill="#416da9" fill-rule="nonzero"/>
   <g id="g3017">
    <path d="m529,158.06251c7.62551,58.93 63.86248,228.943 270.00809,249.9189l76.33791,-46.3436c-43.09055,-22.6566 -90.17573,-63.8728 -106.83921,-127.0362c-55.72402,23.7672 -180.98862,8.3951 -239.50679,-76.5391z" id="path4240-3-4" fill="#a3e7e0" fill-rule="nonzero"/>
    <path d="m540.29151,170.24381c22.90902,10.9567 92.60157,43.7887 152.52571,-27.2628l-0.44182,-37.2931c-18.1382,10.1918 -43.41396,12.388 -69.94119,3.6896c-5.53844,33.7397 -38.04869,62.1362 -82.1427,60.8663z" id="path4232-6-6" fill="#1890ff" fill-rule="nonzero"/>
    <path d="m544.20777,170.82191c17.94463,1.2269 64.66115,-5.068 78.80699,-60.3344l-14.04016,-21.8084c-7.52791,12.0343 -18.42779,18.5917 -37.15651,22.0586c7.71756,22.014 -0.7924,46.4244 -27.61032,60.0842z" id="path4234-1-1" fill="#ef476f" fill-rule="nonzero"/>
    <path d="m534.30141,165.47091c11.71285,17.9945 94.71081,116.5011 233.33745,71.0626l27.95078,-50.529c-32.91583,0.5463 -69.53202,-8.3287 -102.52012,-43.7496c-25.34157,32.1863 -93.37853,59.0172 -158.76811,23.216z" id="path4236-0-5" fill="#a6c4db" fill-rule="nonzero"/>
   </g>
   <path id="path4442" d="m-502.30629,1107.62681c243.60628,-13.7189 895.97713,-131.0253 1022.87526,-797.5437l-159.09635,-342.3953c-49.81908,91.7927 -322.57208,344.2119 -510.72802,340.1459c94.42469,326.8647 -57.75819,649.4178 -353.05089,799.7931z" fill="#0066FF" fill-rule="nonzero"/>
   <path id="path4232-6-6-5" d="m485.49722,841.86151c25.22424,2.934 101.79799,11.387 135.43778,-75.2593l-12.51358,-35.1337c-13.85204,15.5238 -37.0491,25.7992 -64.96351,26.1749c5.70412,33.7121 -15.8385,71.1179 -57.96069,84.2181z" fill="#1890ff" fill-rule="nonzero"/>
   <path id="path4234-1-1-6" d="m489.38925,841.13811c17.37248,-4.6596 59.52185,-25.7662 54.97784,-82.633l-20.35452,-16.0757c-3.21772,13.8254 -11.40155,23.5635 -27.99334,32.9175c14.44038,18.3208 14.30775,44.1717 -6.62998,65.7912z" fill="#ef476f" fill-rule="nonzero"/>
   <path id="path4236-0-5-9" d="m478.28288,839.28941c16.91601,13.2228 127.37682,79.4846 243.77179,-8.4598l10.05117,-56.863c-30.95923,11.1927 -68.47448,14.6736 -111.16766,-8.133c-13.5323,38.6656 -69.18889,86.1131 -142.6553,73.4558z" fill="#a6c4db" fill-rule="nonzero"/>
  </g>
  <path id="svg_1" d="m-1.16941,-0.8432l1860.87415,0l0,1156.52466l-1860.87415,0l0,-1156.52466z" opacity="undefined" stroke="#000" fill-opacity="0.4" fill="#ffffff"/>
 </g>
</svg>
