<svg width="1440" height="909" viewBox="0 0 1440 909" fill="none" xmlns="http://www.w3.org/2000/svg">
  <g opacity="0.2" clip-path="url(#clip0_6:167)">
    <g opacity="0.5">
      <path opacity="0.5"
        d="M55.7184 37.7135C55.7184 39.5059 54.1824 40.969 52.3008 40.969C50.4192 40.969 48.8832 39.5059 48.8832 37.7135C48.8832 35.9211 50.4192 34.4579 52.3008 34.4579C54.1824 34.4579 55.7184 35.9211 55.7184 37.7135Z"
        fill="#0C234650" />
      <path opacity="0.5"
        d="M81.6959 40.969C83.5834 40.969 85.1135 39.5115 85.1135 37.7135C85.1135 35.9155 83.5834 34.4579 81.6959 34.4579C79.8084 34.4579 78.2783 35.9155 78.2783 37.7135C78.2783 39.5115 79.8084 40.969 81.6959 40.969Z"
        fill="#0C234650" />
      <path opacity="0.5"
        d="M111.072 40.969C112.959 40.969 114.49 39.5115 114.49 37.7135C114.49 35.9155 112.959 34.4579 111.072 34.4579C109.184 34.4579 107.654 35.9155 107.654 37.7135C107.654 39.5115 109.184 40.969 111.072 40.969Z"
        fill="#0C234650" />
      <path opacity="0.5"
        d="M143.885 37.7135C143.885 39.5058 142.349 40.969 140.467 40.969C138.586 40.969 137.05 39.5058 137.05 37.7135C137.05 35.9211 138.586 34.4579 140.467 34.4579C142.349 34.4579 143.885 35.9211 143.885 37.7135Z"
        fill="#0C234650" />
      <path opacity="0.5"
        d="M169.843 40.969C171.731 40.969 173.261 39.5115 173.261 37.7135C173.261 35.9155 171.731 34.4579 169.843 34.4579C167.956 34.4579 166.426 35.9155 166.426 37.7135C166.426 39.5115 167.956 40.969 169.843 40.969Z"
        fill="#0C234650" />
      <path opacity="0.5"
        d="M199.238 40.969C201.126 40.969 202.656 39.5115 202.656 37.7135C202.656 35.9155 201.126 34.4579 199.238 34.4579C197.351 34.4579 195.821 35.9155 195.821 37.7135C195.821 39.5115 197.351 40.969 199.238 40.969Z"
        fill="#0C234650" />
      <path opacity="0.5"
        d="M228.614 40.969C230.502 40.969 232.032 39.5115 232.032 37.7135C232.032 35.9155 230.502 34.4579 228.614 34.4579C226.727 34.4579 225.197 35.9155 225.197 37.7135C225.197 39.5115 226.727 40.969 228.614 40.969Z"
        fill="#0C234650" />
      <path opacity="0.5"
        d="M258.01 40.969C259.897 40.969 261.427 39.5115 261.427 37.7135C261.427 35.9155 259.897 34.4579 258.01 34.4579C256.122 34.4579 254.592 35.9155 254.592 37.7135C254.592 39.5115 256.122 40.969 258.01 40.969Z"
        fill="#0C234650" />
      <path opacity="0.5"
        d="M55.7184 65.6968C55.7184 67.4892 54.1824 68.9524 52.3008 68.9524C50.4192 68.9524 48.8832 67.4892 48.8832 65.6968C48.8832 63.9044 50.4192 62.4412 52.3008 62.4412C54.1824 62.4595 55.7184 63.9044 55.7184 65.6968Z"
        fill="#0C234650" />
      <path opacity="0.5"
        d="M81.6959 68.9524C83.5834 68.9524 85.1135 67.4948 85.1135 65.6968C85.1135 63.8988 83.5834 62.4412 81.6959 62.4412C79.8084 62.4412 78.2783 63.8988 78.2783 65.6968C78.2783 67.4948 79.8084 68.9524 81.6959 68.9524Z"
        fill="#0C234650" />
      <path opacity="0.5"
        d="M111.072 68.9524C112.959 68.9524 114.49 67.4948 114.49 65.6968C114.49 63.8988 112.959 62.4412 111.072 62.4412C109.184 62.4412 107.654 63.8988 107.654 65.6968C107.654 67.4948 109.184 68.9524 111.072 68.9524Z"
        fill="#0C234650" />
      <path opacity="0.5"
        d="M143.885 65.6968C143.885 67.4892 142.349 68.9524 140.467 68.9524C138.586 68.9524 137.05 67.4892 137.05 65.6968C137.05 63.9044 138.586 62.4412 140.467 62.4412C142.349 62.4595 143.885 63.9044 143.885 65.6968Z"
        fill="#0C234650" />
      <path opacity="0.5"
        d="M169.843 68.9524C171.731 68.9524 173.261 67.4948 173.261 65.6968C173.261 63.8988 171.731 62.4412 169.843 62.4412C167.956 62.4412 166.426 63.8988 166.426 65.6968C166.426 67.4948 167.956 68.9524 169.843 68.9524Z"
        fill="#0C234650" />
      <path opacity="0.5"
        d="M199.238 68.9524C201.126 68.9524 202.656 67.4948 202.656 65.6968C202.656 63.8988 201.126 62.4412 199.238 62.4412C197.351 62.4412 195.821 63.8988 195.821 65.6968C195.821 67.4948 197.351 68.9524 199.238 68.9524Z"
        fill="#0C234650" />
      <path opacity="0.5"
        d="M228.614 68.9524C230.502 68.9524 232.032 67.4948 232.032 65.6968C232.032 63.8988 230.502 62.4412 228.614 62.4412C226.727 62.4412 225.197 63.8988 225.197 65.6968C225.197 67.4948 226.727 68.9524 228.614 68.9524Z"
        fill="#0C234650" />
      <path opacity="0.5"
        d="M258.01 68.9524C259.897 68.9524 261.427 67.4948 261.427 65.6968C261.427 63.8988 259.897 62.4412 258.01 62.4412C256.122 62.4412 254.592 63.8988 254.592 65.6968C254.592 67.4948 256.122 68.9524 258.01 68.9524Z"
        fill="#0C234650" />
      <path opacity="0.5"
        d="M55.7184 93.6984C55.7184 95.4908 54.1824 96.9539 52.3008 96.9539C50.4192 96.9539 48.8832 95.4908 48.8832 93.6984C48.8832 91.906 50.4192 90.4428 52.3008 90.4428C54.1824 90.4428 55.7184 91.906 55.7184 93.6984Z"
        fill="#0C234650" />
      <path opacity="0.5"
        d="M81.6959 96.9539C83.5834 96.9539 85.1135 95.4964 85.1135 93.6984C85.1135 91.9004 83.5834 90.4428 81.6959 90.4428C79.8084 90.4428 78.2783 91.9004 78.2783 93.6984C78.2783 95.4964 79.8084 96.9539 81.6959 96.9539Z"
        fill="#0C234650" />
      <path opacity="0.5"
        d="M111.072 96.9539C112.959 96.9539 114.49 95.4964 114.49 93.6984C114.49 91.9004 112.959 90.4428 111.072 90.4428C109.184 90.4428 107.654 91.9004 107.654 93.6984C107.654 95.4964 109.184 96.9539 111.072 96.9539Z"
        fill="#0C234650" />
      <path opacity="0.5"
        d="M143.885 93.6984C143.885 95.4908 142.349 96.9539 140.467 96.9539C138.586 96.9539 137.05 95.4908 137.05 93.6984C137.05 91.906 138.586 90.4428 140.467 90.4428C142.349 90.4428 143.885 91.906 143.885 93.6984Z"
        fill="#0C234650" />
      <path opacity="0.5"
        d="M169.843 96.9539C171.731 96.9539 173.261 95.4964 173.261 93.6984C173.261 91.9004 171.731 90.4428 169.843 90.4428C167.956 90.4428 166.426 91.9004 166.426 93.6984C166.426 95.4964 167.956 96.9539 169.843 96.9539Z"
        fill="#0C234650" />
      <path opacity="0.5"
        d="M199.238 96.9539C201.126 96.9539 202.656 95.4964 202.656 93.6984C202.656 91.9004 201.126 90.4428 199.238 90.4428C197.351 90.4428 195.821 91.9004 195.821 93.6984C195.821 95.4964 197.351 96.9539 199.238 96.9539Z"
        fill="#0C234650" />
      <path opacity="0.5"
        d="M228.614 96.9539C230.502 96.9539 232.032 95.4964 232.032 93.6984C232.032 91.9004 230.502 90.4428 228.614 90.4428C226.727 90.4428 225.197 91.9004 225.197 93.6984C225.197 95.4964 226.727 96.9539 228.614 96.9539Z"
        fill="#0C234650" />
      <path opacity="0.5"
        d="M258.01 96.9539C259.897 96.9539 261.427 95.4964 261.427 93.6984C261.427 91.9004 259.897 90.4428 258.01 90.4428C256.122 90.4428 254.592 91.9004 254.592 93.6984C254.592 95.4964 256.122 96.9539 258.01 96.9539Z"
        fill="#0C234650" />
      <path opacity="0.5"
        d="M55.7184 121.682C55.7184 123.474 54.1824 124.937 52.3008 124.937C50.4192 124.937 48.8832 123.474 48.8832 121.682C48.8832 119.889 50.4192 118.426 52.3008 118.426C54.1824 118.444 55.7184 119.889 55.7184 121.682Z"
        fill="#0C234650" />
      <path opacity="0.5"
        d="M81.6959 124.937C83.5834 124.937 85.1135 123.48 85.1135 121.682C85.1135 119.884 83.5834 118.426 81.6959 118.426C79.8084 118.426 78.2783 119.884 78.2783 121.682C78.2783 123.48 79.8084 124.937 81.6959 124.937Z"
        fill="#0C234650" />
      <path opacity="0.5"
        d="M111.072 124.937C112.959 124.937 114.49 123.48 114.49 121.682C114.49 119.884 112.959 118.426 111.072 118.426C109.184 118.426 107.654 119.884 107.654 121.682C107.654 123.48 109.184 124.937 111.072 124.937Z"
        fill="#0C234650" />
      <path opacity="0.5"
        d="M143.885 121.682C143.885 123.474 142.349 124.937 140.467 124.937C138.586 124.937 137.05 123.474 137.05 121.682C137.05 119.889 138.586 118.426 140.467 118.426C142.349 118.444 143.885 119.889 143.885 121.682Z"
        fill="#0C234650" />
      <path opacity="0.5"
        d="M169.843 124.937C171.731 124.937 173.261 123.48 173.261 121.682C173.261 119.884 171.731 118.426 169.843 118.426C167.956 118.426 166.426 119.884 166.426 121.682C166.426 123.48 167.956 124.937 169.843 124.937Z"
        fill="#0C234650" />
      <path opacity="0.5"
        d="M199.238 124.937C201.126 124.937 202.656 123.48 202.656 121.682C202.656 119.884 201.126 118.426 199.238 118.426C197.351 118.426 195.821 119.884 195.821 121.682C195.821 123.48 197.351 124.937 199.238 124.937Z"
        fill="#0C234650" />
      <path opacity="0.5"
        d="M228.614 124.937C230.502 124.937 232.032 123.48 232.032 121.682C232.032 119.884 230.502 118.426 228.614 118.426C226.727 118.426 225.197 119.884 225.197 121.682C225.197 123.48 226.727 124.937 228.614 124.937Z"
        fill="#0C234650" />
      <path opacity="0.5"
        d="M258.01 124.937C259.897 124.937 261.427 123.48 261.427 121.682C261.427 119.884 259.897 118.426 258.01 118.426C256.122 118.426 254.592 119.884 254.592 121.682C254.592 123.48 256.122 124.937 258.01 124.937Z"
        fill="#0C234650" />
      <path opacity="0.5"
        d="M55.7184 149.683C55.7184 151.476 54.1824 152.939 52.3008 152.939C50.4192 152.939 48.8832 151.476 48.8832 149.683C48.8832 147.891 50.4192 146.428 52.3008 146.428C54.1824 146.428 55.7184 147.891 55.7184 149.683Z"
        fill="#0C234650" />
      <path opacity="0.5"
        d="M81.6959 152.939C83.5834 152.939 85.1135 151.481 85.1135 149.683C85.1135 147.885 83.5834 146.428 81.6959 146.428C79.8084 146.428 78.2783 147.885 78.2783 149.683C78.2783 151.481 79.8084 152.939 81.6959 152.939Z"
        fill="#0C234650" />
      <path opacity="0.5"
        d="M111.072 152.939C112.959 152.939 114.49 151.481 114.49 149.683C114.49 147.885 112.959 146.428 111.072 146.428C109.184 146.428 107.654 147.885 107.654 149.683C107.654 151.481 109.184 152.939 111.072 152.939Z"
        fill="#0C234650" />
      <path opacity="0.5"
        d="M143.885 149.683C143.885 151.476 142.349 152.939 140.467 152.939C138.586 152.939 137.05 151.476 137.05 149.683C137.05 147.891 138.586 146.428 140.467 146.428C142.349 146.428 143.885 147.891 143.885 149.683Z"
        fill="#0C234650" />
      <path opacity="0.5"
        d="M169.843 152.939C171.731 152.939 173.261 151.481 173.261 149.683C173.261 147.885 171.731 146.428 169.843 146.428C167.956 146.428 166.426 147.885 166.426 149.683C166.426 151.481 167.956 152.939 169.843 152.939Z"
        fill="#0C234650" />
      <path opacity="0.5"
        d="M199.238 152.939C201.126 152.939 202.656 151.481 202.656 149.683C202.656 147.885 201.126 146.428 199.238 146.428C197.351 146.428 195.821 147.885 195.821 149.683C195.821 151.481 197.351 152.939 199.238 152.939Z"
        fill="#0C234650" />
      <path opacity="0.5"
        d="M228.614 152.939C230.502 152.939 232.032 151.481 232.032 149.683C232.032 147.885 230.502 146.428 228.614 146.428C226.727 146.428 225.197 147.885 225.197 149.683C225.197 151.481 226.727 152.939 228.614 152.939Z"
        fill="#0C234650" />
      <path opacity="0.5"
        d="M258.01 152.939C259.897 152.939 261.427 151.481 261.427 149.683C261.427 147.885 259.897 146.428 258.01 146.428C256.122 146.428 254.592 147.885 254.592 149.683C254.592 151.481 256.122 152.939 258.01 152.939Z"
        fill="#0C234650" />
      <path opacity="0.5"
        d="M55.7184 177.685C55.7184 179.477 54.1824 180.94 52.3008 180.94C50.4192 180.94 48.8832 179.477 48.8832 177.685C48.8832 175.892 50.4192 174.429 52.3008 174.429C54.1824 174.429 55.7184 175.874 55.7184 177.685Z"
        fill="#0C234650" />
      <path opacity="0.5"
        d="M81.6959 180.94C83.5834 180.94 85.1135 179.483 85.1135 177.685C85.1135 175.887 83.5834 174.429 81.6959 174.429C79.8084 174.429 78.2783 175.887 78.2783 177.685C78.2783 179.483 79.8084 180.94 81.6959 180.94Z"
        fill="#0C234650" />
      <path opacity="0.5"
        d="M111.072 180.94C112.959 180.94 114.49 179.483 114.49 177.685C114.49 175.887 112.959 174.429 111.072 174.429C109.184 174.429 107.654 175.887 107.654 177.685C107.654 179.483 109.184 180.94 111.072 180.94Z"
        fill="#0C234650" />
      <path opacity="0.5"
        d="M143.885 177.685C143.885 179.477 142.349 180.94 140.467 180.94C138.586 180.94 137.05 179.477 137.05 177.685C137.05 175.892 138.586 174.429 140.467 174.429C142.349 174.429 143.885 175.874 143.885 177.685Z"
        fill="#0C234650" />
      <path opacity="0.5"
        d="M169.843 180.94C171.731 180.94 173.261 179.483 173.261 177.685C173.261 175.887 171.731 174.429 169.843 174.429C167.956 174.429 166.426 175.887 166.426 177.685C166.426 179.483 167.956 180.94 169.843 180.94Z"
        fill="#0C234650" />
      <path opacity="0.5"
        d="M199.238 180.94C201.126 180.94 202.656 179.483 202.656 177.685C202.656 175.887 201.126 174.429 199.238 174.429C197.351 174.429 195.821 175.887 195.821 177.685C195.821 179.483 197.351 180.94 199.238 180.94Z"
        fill="#0C234650" />
      <path opacity="0.5"
        d="M228.614 180.94C230.502 180.94 232.032 179.483 232.032 177.685C232.032 175.887 230.502 174.429 228.614 174.429C226.727 174.429 225.197 175.887 225.197 177.685C225.197 179.483 226.727 180.94 228.614 180.94Z"
        fill="#0C234650" />
      <path opacity="0.5"
        d="M258.01 180.94C259.897 180.94 261.427 179.483 261.427 177.685C261.427 175.887 259.897 174.429 258.01 174.429C256.122 174.429 254.592 175.887 254.592 177.685C254.592 179.483 256.122 180.94 258.01 180.94Z"
        fill="#0C234650" />
    </g>
    <g opacity="0.5">
      <path opacity="0.5"
        d="M1222.87 527.622C1224.75 527.622 1226.28 526.165 1226.28 524.367C1226.28 522.569 1224.75 521.111 1222.87 521.111C1220.98 521.111 1219.45 522.569 1219.45 524.367C1219.45 526.165 1220.98 527.622 1222.87 527.622Z"
        fill="#0C234650" />
      <path opacity="0.5"
        d="M1222.87 555.624C1224.75 555.624 1226.28 554.166 1226.28 552.368C1226.28 550.57 1224.75 549.113 1222.87 549.113C1220.98 549.113 1219.45 550.57 1219.45 552.368C1219.45 554.166 1220.98 555.624 1222.87 555.624Z"
        fill="#0C234650" />
      <path opacity="0.5"
        d="M1222.87 583.607C1224.75 583.607 1226.28 582.15 1226.28 580.352C1226.28 578.554 1224.75 577.096 1222.87 577.096C1220.98 577.096 1219.45 578.554 1219.45 580.352C1219.45 582.15 1220.98 583.607 1222.87 583.607Z"
        fill="#0C234650" />
      <path opacity="0.5"
        d="M1222.87 611.609C1224.75 611.609 1226.28 610.151 1226.28 608.353C1226.28 606.555 1224.75 605.098 1222.87 605.098C1220.98 605.098 1219.45 606.555 1219.45 608.353C1219.45 610.151 1220.98 611.609 1222.87 611.609Z"
        fill="#0C234650" />
      <path opacity="0.5"
        d="M1222.87 639.592C1224.75 639.592 1226.28 638.135 1226.28 636.337C1226.28 634.539 1224.75 633.081 1222.87 633.081C1220.98 633.081 1219.45 634.539 1219.45 636.337C1219.45 638.135 1220.98 639.592 1222.87 639.592Z"
        fill="#0C234650" />
      <path opacity="0.5"
        d="M1222.87 667.594C1224.75 667.594 1226.28 666.136 1226.28 664.338C1226.28 662.54 1224.75 661.083 1222.87 661.083C1220.98 661.083 1219.45 662.54 1219.45 664.338C1219.45 666.136 1220.98 667.594 1222.87 667.594Z"
        fill="#0C234650" />
      <path opacity="0.5"
        d="M1222.87 695.577C1224.75 695.577 1226.28 694.12 1226.28 692.322C1226.28 690.524 1224.75 689.066 1222.87 689.066C1220.98 689.066 1219.45 690.524 1219.45 692.322C1219.45 694.12 1220.98 695.577 1222.87 695.577Z"
        fill="#0C234650" />
      <path opacity="0.5"
        d="M1222.87 723.56C1220.99 723.56 1219.45 722.097 1219.45 720.305C1219.45 718.512 1220.99 717.049 1222.87 717.049C1224.75 717.049 1226.28 718.512 1226.28 720.305C1226.28 722.115 1224.75 723.56 1222.87 723.56Z"
        fill="#0C234650" />
      <path opacity="0.5"
        d="M1193.49 527.622C1191.61 527.622 1190.07 526.159 1190.07 524.367C1190.07 522.574 1191.61 521.111 1193.49 521.111C1195.37 521.111 1196.91 522.574 1196.91 524.367C1196.89 526.159 1195.37 527.622 1193.49 527.622Z"
        fill="#0C234650" />
      <path opacity="0.5"
        d="M1193.49 555.606C1191.61 555.606 1190.07 554.142 1190.07 552.35C1190.07 550.558 1191.61 549.094 1193.49 549.094C1195.37 549.094 1196.91 550.558 1196.91 552.35C1196.89 554.161 1195.37 555.606 1193.49 555.606Z"
        fill="#0C234650" />
      <path opacity="0.5"
        d="M1193.49 583.607C1191.61 583.607 1190.07 582.144 1190.07 580.352C1190.07 578.559 1191.61 577.096 1193.49 577.096C1195.37 577.096 1196.91 578.559 1196.91 580.352C1196.89 582.144 1195.37 583.607 1193.49 583.607Z"
        fill="#0C234650" />
      <path opacity="0.5"
        d="M1193.49 611.59C1191.61 611.59 1190.07 610.127 1190.07 608.335C1190.07 606.542 1191.61 605.079 1193.49 605.079C1195.37 605.079 1196.91 606.542 1196.91 608.335C1196.89 610.145 1195.37 611.59 1193.49 611.59Z"
        fill="#0C234650" />
      <path opacity="0.5"
        d="M1193.49 639.592C1191.61 639.592 1190.07 638.129 1190.07 636.337C1190.07 634.544 1191.61 633.081 1193.49 633.081C1195.37 633.081 1196.91 634.544 1196.91 636.337C1196.89 638.129 1195.37 639.592 1193.49 639.592Z"
        fill="#0C234650" />
      <path opacity="0.5"
        d="M1193.49 667.576C1191.61 667.576 1190.07 666.112 1190.07 664.32C1190.07 662.528 1191.61 661.064 1193.49 661.064C1195.37 661.064 1196.91 662.528 1196.91 664.32C1196.91 666.112 1195.37 667.576 1193.49 667.576Z"
        fill="#0C234650" />
      <path opacity="0.5"
        d="M1193.49 695.577C1191.61 695.577 1190.07 694.114 1190.07 692.322C1190.07 690.529 1191.61 689.066 1193.49 689.066C1195.37 689.066 1196.91 690.529 1196.91 692.322C1196.91 694.114 1195.37 695.577 1193.49 695.577Z"
        fill="#0C234650" />
      <path opacity="0.5"
        d="M1193.49 723.56C1191.61 723.56 1190.07 722.097 1190.07 720.305C1190.07 718.512 1191.61 717.049 1193.49 717.049C1195.37 717.049 1196.91 718.512 1196.91 720.305C1196.89 722.115 1195.37 723.56 1193.49 723.56Z"
        fill="#0C234650" />
      <path opacity="0.5"
        d="M1164.1 527.622C1165.98 527.622 1167.51 526.165 1167.51 524.367C1167.51 522.569 1165.98 521.111 1164.1 521.111C1162.21 521.111 1160.68 522.569 1160.68 524.367C1160.68 526.165 1162.21 527.622 1164.1 527.622Z"
        fill="#0C234650" />
      <path opacity="0.5"
        d="M1164.1 555.624C1165.98 555.624 1167.51 554.166 1167.51 552.368C1167.51 550.57 1165.98 549.113 1164.1 549.113C1162.21 549.113 1160.68 550.57 1160.68 552.368C1160.68 554.166 1162.21 555.624 1164.1 555.624Z"
        fill="#0C234650" />
      <path opacity="0.5"
        d="M1164.1 583.607C1165.98 583.607 1167.51 582.15 1167.51 580.352C1167.51 578.554 1165.98 577.096 1164.1 577.096C1162.21 577.096 1160.68 578.554 1160.68 580.352C1160.68 582.15 1162.21 583.607 1164.1 583.607Z"
        fill="#0C234650" />
      <path opacity="0.5"
        d="M1164.1 611.609C1165.98 611.609 1167.51 610.151 1167.51 608.353C1167.51 606.555 1165.98 605.098 1164.1 605.098C1162.21 605.098 1160.68 606.555 1160.68 608.353C1160.68 610.151 1162.21 611.609 1164.1 611.609Z"
        fill="#0C234650" />
      <path opacity="0.5"
        d="M1164.1 639.592C1165.98 639.592 1167.51 638.135 1167.51 636.337C1167.51 634.539 1165.98 633.081 1164.1 633.081C1162.21 633.081 1160.68 634.539 1160.68 636.337C1160.68 638.135 1162.21 639.592 1164.1 639.592Z"
        fill="#0C234650" />
      <path opacity="0.5"
        d="M1164.1 667.594C1165.98 667.594 1167.51 666.136 1167.51 664.338C1167.51 662.54 1165.98 661.083 1164.1 661.083C1162.21 661.083 1160.68 662.54 1160.68 664.338C1160.68 666.136 1162.21 667.594 1164.1 667.594Z"
        fill="#0C234650" />
      <path opacity="0.5"
        d="M1164.1 695.577C1165.98 695.577 1167.51 694.12 1167.51 692.322C1167.51 690.524 1165.98 689.066 1164.1 689.066C1162.21 689.066 1160.68 690.524 1160.68 692.322C1160.68 694.12 1162.21 695.577 1164.1 695.577Z"
        fill="#0C234650" />
      <path opacity="0.5"
        d="M1164.1 723.56C1162.21 723.56 1160.68 722.097 1160.68 720.305C1160.68 718.512 1162.21 717.049 1164.1 717.049C1165.98 717.049 1167.51 718.512 1167.51 720.305C1167.51 722.115 1165.98 723.56 1164.1 723.56Z"
        fill="#0C234650" />
      <path opacity="0.5"
        d="M1134.7 527.622C1136.59 527.622 1138.12 526.165 1138.12 524.367C1138.12 522.569 1136.59 521.111 1134.7 521.111C1132.81 521.111 1131.28 522.569 1131.28 524.367C1131.28 526.165 1132.81 527.622 1134.7 527.622Z"
        fill="#0C234650" />
      <path opacity="0.5"
        d="M1134.7 555.624C1136.59 555.624 1138.12 554.166 1138.12 552.368C1138.12 550.57 1136.59 549.113 1134.7 549.113C1132.81 549.113 1131.28 550.57 1131.28 552.368C1131.28 554.166 1132.81 555.624 1134.7 555.624Z"
        fill="#0C234650" />
      <path opacity="0.5"
        d="M1134.7 583.607C1136.59 583.607 1138.12 582.15 1138.12 580.352C1138.12 578.554 1136.59 577.096 1134.7 577.096C1132.81 577.096 1131.28 578.554 1131.28 580.352C1131.28 582.15 1132.81 583.607 1134.7 583.607Z"
        fill="#0C234650" />
      <path opacity="0.5"
        d="M1134.7 611.609C1136.59 611.609 1138.12 610.151 1138.12 608.353C1138.12 606.555 1136.59 605.098 1134.7 605.098C1132.81 605.098 1131.28 606.555 1131.28 608.353C1131.28 610.151 1132.81 611.609 1134.7 611.609Z"
        fill="#0C234650" />
      <path opacity="0.5"
        d="M1134.7 639.592C1136.59 639.592 1138.12 638.135 1138.12 636.337C1138.12 634.539 1136.59 633.081 1134.7 633.081C1132.81 633.081 1131.28 634.539 1131.28 636.337C1131.28 638.135 1132.81 639.592 1134.7 639.592Z"
        fill="#0C234650" />
      <path opacity="0.5"
        d="M1134.7 667.594C1136.59 667.594 1138.12 666.136 1138.12 664.338C1138.12 662.54 1136.59 661.083 1134.7 661.083C1132.81 661.083 1131.28 662.54 1131.28 664.338C1131.28 666.136 1132.81 667.594 1134.7 667.594Z"
        fill="#0C234650" />
      <path opacity="0.5"
        d="M1134.7 695.577C1136.59 695.577 1138.12 694.12 1138.12 692.322C1138.12 690.524 1136.59 689.066 1134.7 689.066C1132.81 689.066 1131.28 690.524 1131.28 692.322C1131.28 694.12 1132.81 695.577 1134.7 695.577Z"
        fill="#0C234650" />
      <path opacity="0.5"
        d="M1134.7 723.56C1132.82 723.56 1131.28 722.097 1131.28 720.305C1131.28 718.512 1132.82 717.049 1134.7 717.049C1136.58 717.049 1138.12 718.512 1138.12 720.305C1138.12 722.115 1136.6 723.56 1134.7 723.56Z"
        fill="#0C234650" />
      <path opacity="0.5"
        d="M1105.32 527.622C1107.21 527.622 1108.74 526.165 1108.74 524.367C1108.74 522.569 1107.21 521.111 1105.32 521.111C1103.44 521.111 1101.91 522.569 1101.91 524.367C1101.91 526.165 1103.44 527.622 1105.32 527.622Z"
        fill="#0C234650" />
      <path opacity="0.5"
        d="M1105.32 555.624C1107.21 555.624 1108.74 554.166 1108.74 552.368C1108.74 550.57 1107.21 549.113 1105.32 549.113C1103.44 549.113 1101.91 550.57 1101.91 552.368C1101.91 554.166 1103.44 555.624 1105.32 555.624Z"
        fill="#0C234650" />
      <path opacity="0.5"
        d="M1105.32 583.607C1107.21 583.607 1108.74 582.15 1108.74 580.352C1108.74 578.554 1107.21 577.096 1105.32 577.096C1103.44 577.096 1101.91 578.554 1101.91 580.352C1101.91 582.15 1103.44 583.607 1105.32 583.607Z"
        fill="#0C234650" />
      <path opacity="0.5"
        d="M1105.32 611.609C1107.21 611.609 1108.74 610.151 1108.74 608.353C1108.74 606.555 1107.21 605.098 1105.32 605.098C1103.44 605.098 1101.91 606.555 1101.91 608.353C1101.91 610.151 1103.44 611.609 1105.32 611.609Z"
        fill="#0C234650" />
      <path opacity="0.5"
        d="M1105.32 639.592C1107.21 639.592 1108.74 638.135 1108.74 636.337C1108.74 634.539 1107.21 633.081 1105.32 633.081C1103.44 633.081 1101.91 634.539 1101.91 636.337C1101.91 638.135 1103.44 639.592 1105.32 639.592Z"
        fill="#0C234650" />
      <path opacity="0.5"
        d="M1105.32 667.594C1107.21 667.594 1108.74 666.136 1108.74 664.338C1108.74 662.54 1107.21 661.083 1105.32 661.083C1103.44 661.083 1101.91 662.54 1101.91 664.338C1101.91 666.136 1103.44 667.594 1105.32 667.594Z"
        fill="#0C234650" />
      <path opacity="0.5"
        d="M1105.32 695.577C1107.21 695.577 1108.74 694.12 1108.74 692.322C1108.74 690.524 1107.21 689.066 1105.32 689.066C1103.44 689.066 1101.91 690.524 1101.91 692.322C1101.91 694.12 1103.44 695.577 1105.32 695.577Z"
        fill="#0C234650" />
      <path opacity="0.5"
        d="M1105.32 723.56C1103.44 723.56 1101.91 722.097 1101.91 720.305C1101.91 718.512 1103.44 717.049 1105.32 717.049C1107.21 717.049 1108.74 718.512 1108.74 720.305C1108.74 722.115 1107.21 723.56 1105.32 723.56Z"
        fill="#0C234650" />
      <path opacity="0.5"
        d="M1075.93 527.622C1077.82 527.622 1079.35 526.165 1079.35 524.367C1079.35 522.569 1077.82 521.111 1075.93 521.111C1074.04 521.111 1072.51 522.569 1072.51 524.367C1072.51 526.165 1074.04 527.622 1075.93 527.622Z"
        fill="#0C234650" />
      <path opacity="0.5"
        d="M1075.93 555.624C1077.82 555.624 1079.35 554.166 1079.35 552.368C1079.35 550.57 1077.82 549.113 1075.93 549.113C1074.04 549.113 1072.51 550.57 1072.51 552.368C1072.51 554.166 1074.04 555.624 1075.93 555.624Z"
        fill="#0C234650" />
      <path opacity="0.5"
        d="M1075.93 583.607C1077.82 583.607 1079.35 582.15 1079.35 580.352C1079.35 578.554 1077.82 577.096 1075.93 577.096C1074.04 577.096 1072.51 578.554 1072.51 580.352C1072.51 582.15 1074.04 583.607 1075.93 583.607Z"
        fill="#0C234650" />
      <path opacity="0.5"
        d="M1075.93 611.609C1077.82 611.609 1079.35 610.151 1079.35 608.353C1079.35 606.555 1077.82 605.098 1075.93 605.098C1074.04 605.098 1072.51 606.555 1072.51 608.353C1072.51 610.151 1074.04 611.609 1075.93 611.609Z"
        fill="#0C234650" />
      <path opacity="0.5"
        d="M1075.93 639.592C1077.82 639.592 1079.35 638.135 1079.35 636.337C1079.35 634.539 1077.82 633.081 1075.93 633.081C1074.04 633.081 1072.51 634.539 1072.51 636.337C1072.51 638.135 1074.04 639.592 1075.93 639.592Z"
        fill="#0C234650" />
      <path opacity="0.5"
        d="M1075.93 667.594C1077.82 667.594 1079.35 666.136 1079.35 664.338C1079.35 662.54 1077.82 661.083 1075.93 661.083C1074.04 661.083 1072.51 662.54 1072.51 664.338C1072.51 666.136 1074.04 667.594 1075.93 667.594Z"
        fill="#0C234650" />
      <path opacity="0.5"
        d="M1075.93 695.577C1077.82 695.577 1079.35 694.12 1079.35 692.322C1079.35 690.524 1077.82 689.066 1075.93 689.066C1074.04 689.066 1072.51 690.524 1072.51 692.322C1072.51 694.12 1074.04 695.577 1075.93 695.577Z"
        fill="#0C234650" />
      <path opacity="0.5"
        d="M1075.93 723.56C1074.05 723.56 1072.51 722.097 1072.51 720.305C1072.51 718.512 1074.05 717.049 1075.93 717.049C1077.81 717.049 1079.35 718.512 1079.35 720.305C1079.35 722.115 1077.81 723.56 1075.93 723.56Z"
        fill="#0C234650" />
    </g>
    <g opacity="0.5">
      <path opacity="0.5"
        d="M847.719 105.239C847.719 107.032 846.183 108.495 844.301 108.495C842.42 108.495 840.884 107.032 840.884 105.239C840.884 103.447 842.42 101.984 844.301 101.984C846.183 101.984 847.719 103.447 847.719 105.239Z"
        fill="#0C234650" />
      <path opacity="0.5"
        d="M877.114 105.239C877.114 107.032 875.578 108.495 873.696 108.495C871.814 108.495 870.278 107.032 870.278 105.239C870.278 103.447 871.814 101.984 873.696 101.984C875.578 102.002 877.114 103.447 877.114 105.239Z"
        fill="#0C234650" />
      <path opacity="0.5"
        d="M906.49 105.239C906.49 107.032 904.954 108.495 903.072 108.495C901.19 108.495 899.654 107.032 899.654 105.239C899.654 103.447 901.19 101.984 903.072 101.984C904.954 101.984 906.49 103.447 906.49 105.239Z"
        fill="#0C234650" />
      <path opacity="0.5"
        d="M847.719 133.241C847.719 135.033 846.183 136.496 844.301 136.496C842.419 136.496 840.883 135.033 840.883 133.241C840.883 131.448 842.419 129.985 844.301 129.985C846.183 129.985 847.719 131.448 847.719 133.241Z"
        fill="#0C234650" />
      <path opacity="0.5"
        d="M877.114 133.241C877.114 135.033 875.578 136.496 873.696 136.496C871.814 136.496 870.278 135.033 870.278 133.241C870.278 131.448 871.814 129.985 873.696 129.985C875.578 129.985 877.114 131.448 877.114 133.241Z"
        fill="#0C234650" />
      <path opacity="0.5"
        d="M906.49 133.241C906.49 135.033 904.954 136.496 903.072 136.496C901.19 136.496 899.654 135.033 899.654 133.241C899.654 131.448 901.19 129.985 903.072 129.985C904.954 129.985 906.49 131.448 906.49 133.241Z"
        fill="#0C234650" />
      <path opacity="0.5"
        d="M847.719 161.224C847.719 163.016 846.183 164.48 844.301 164.48C842.419 164.48 840.883 163.016 840.883 161.224C840.883 159.432 842.419 157.968 844.301 157.968C846.183 157.968 847.719 159.432 847.719 161.224Z"
        fill="#0C234650" />
      <path opacity="0.5"
        d="M877.114 161.224C877.114 163.016 875.578 164.48 873.696 164.48C871.814 164.48 870.278 163.016 870.278 161.224C870.278 159.432 871.814 157.968 873.696 157.968C875.578 157.987 877.114 159.432 877.114 161.224Z"
        fill="#0C234650" />
      <path opacity="0.5"
        d="M906.49 161.224C906.49 163.016 904.954 164.48 903.072 164.48C901.19 164.48 899.654 163.016 899.654 161.224C899.654 159.432 901.19 157.968 903.072 157.968C904.954 157.968 906.49 159.432 906.49 161.224Z"
        fill="#0C234650" />
    </g>
    <g opacity="0.5">
      <path opacity="0.5"
        d="M573.35 353.961C573.35 355.754 571.814 357.217 569.933 357.217C568.051 357.217 566.515 355.754 566.515 353.961C566.515 352.169 568.051 350.706 569.933 350.706C571.833 350.706 573.35 352.151 573.35 353.961Z"
        fill="#0C234650" />
      <path opacity="0.5"
        d="M599.328 357.217C601.215 357.217 602.746 355.759 602.746 353.961C602.746 352.163 601.215 350.706 599.328 350.706C597.44 350.706 595.91 352.163 595.91 353.961C595.91 355.759 597.44 357.217 599.328 357.217Z"
        fill="#0C234650" />
      <path opacity="0.5"
        d="M628.704 357.217C630.591 357.217 632.121 355.759 632.121 353.961C632.121 352.163 630.591 350.706 628.704 350.706C626.816 350.706 625.286 352.163 625.286 353.961C625.286 355.759 626.816 357.217 628.704 357.217Z"
        fill="#0C234650" />
      <path opacity="0.5"
        d="M573.35 381.945C573.35 383.737 571.814 385.2 569.933 385.2C568.051 385.2 566.515 383.737 566.515 381.945C566.515 380.152 568.051 378.689 569.933 378.689C571.833 378.689 573.35 380.152 573.35 381.945Z"
        fill="#0C234650" />
      <path opacity="0.5"
        d="M599.328 385.2C601.215 385.2 602.746 383.743 602.746 381.945C602.746 380.147 601.215 378.689 599.328 378.689C597.44 378.689 595.91 380.147 595.91 381.945C595.91 383.743 597.44 385.2 599.328 385.2Z"
        fill="#0C234650" />
      <path opacity="0.5"
        d="M628.704 385.2C630.591 385.2 632.121 383.743 632.121 381.945C632.121 380.147 630.591 378.689 628.704 378.689C626.816 378.689 625.286 380.147 625.286 381.945C625.286 383.743 626.816 385.2 628.704 385.2Z"
        fill="#0C234650" />
      <path opacity="0.5"
        d="M573.35 409.946C573.35 411.739 571.814 413.202 569.933 413.202C568.051 413.202 566.515 411.739 566.515 409.946C566.515 408.154 568.051 406.691 569.933 406.691C571.833 406.691 573.35 408.154 573.35 409.946Z"
        fill="#0C234650" />
      <path opacity="0.5"
        d="M602.746 409.946C602.746 411.739 601.21 413.202 599.328 413.202C597.446 413.202 595.91 411.739 595.91 409.946C595.91 408.154 597.446 406.691 599.328 406.691C601.21 406.691 602.746 408.154 602.746 409.946Z"
        fill="#0C234650" />
      <path opacity="0.5"
        d="M632.121 409.946C632.121 411.739 630.586 413.202 628.704 413.202C626.822 413.202 625.286 411.739 625.286 409.946C625.286 408.154 626.822 406.691 628.704 406.691C630.605 406.691 632.121 408.154 632.121 409.946Z"
        fill="#0C234650" />
    </g>
    <g opacity="0.5">
      <path opacity="0.5" d="M1123.43 113.64L999.629 201.091" stroke="#0C234650" stroke-width="2.1221"
        stroke-miterlimit="10" />
      <path opacity="0.5" d="M1115.39 107.958L991.584 195.409" stroke="#0C234650" stroke-width="2.1221"
        stroke-miterlimit="10" />
      <path opacity="0.5" d="M1107.34 102.275L983.539 189.726" stroke="#0C234650" stroke-width="2.1221"
        stroke-miterlimit="10" />
      <path opacity="0.5" d="M1099.3 96.5922L975.494 184.043" stroke="#0C234650" stroke-width="2.1221"
        stroke-miterlimit="10" />
      <path opacity="0.5" d="M1091.25 90.9095L967.45 178.361" stroke="#0C234650" stroke-width="2.1221"
        stroke-miterlimit="10" />
      <path opacity="0.5" d="M1083.21 85.2268L959.405 172.678" stroke="#0C234650" stroke-width="2.1221"
        stroke-miterlimit="10" />
      <path opacity="0.5" d="M1075.16 79.5441L951.36 166.995" stroke="#0C234650" stroke-width="2.1221"
        stroke-miterlimit="10" />
      <path opacity="0.5" d="M1067.12 73.8615L943.315 161.313" stroke="#0C234650" stroke-width="2.1221"
        stroke-miterlimit="10" />
      <path opacity="0.5" d="M1059.07 68.1787L935.27 155.63" stroke="#0C234650" stroke-width="2.1221"
        stroke-miterlimit="10" />
      <path opacity="0.5" d="M1051.03 62.4961L927.226 149.947" stroke="#0C234650" stroke-width="2.1221"
        stroke-miterlimit="10" />
      <path opacity="0.5" d="M1042.98 56.8134L919.181 144.264" stroke="#0C234650" stroke-width="2.1221"
        stroke-miterlimit="10" />
      <path opacity="0.5" d="M1034.94 51.1443L911.155 138.582" stroke="#0C234650" stroke-width="2.1221"
        stroke-miterlimit="10" />
      <path opacity="0.5" d="M1026.91 45.4615L903.11 132.913" stroke="#0C234650" stroke-width="2.1221"
        stroke-miterlimit="10" />
      <path opacity="0.5" d="M1018.87 39.7789L895.066 127.23" stroke="#0C234650" stroke-width="2.1221"
        stroke-miterlimit="10" />
      <path opacity="0.5" d="M1010.82 34.0962L887.021 121.547" stroke="#0C234650" stroke-width="2.1221"
        stroke-miterlimit="10" />
      <path opacity="0.5" d="M1002.78 28.4135L878.976 115.865" stroke="#0C234650" stroke-width="2.1221"
        stroke-miterlimit="10" />
      <path opacity="0.5" d="M994.733 22.7308L870.931 110.182" stroke="#0C234650" stroke-width="2.1221"
        stroke-miterlimit="10" />
      <path opacity="0.5" d="M986.688 17.0481L862.886 104.499" stroke="#0C234650" stroke-width="2.1221"
        stroke-miterlimit="10" />
      <path opacity="0.5" d="M978.643 11.3654L854.842 98.8165" stroke="#0C234650" stroke-width="2.1221"
        stroke-miterlimit="10" />
      <path opacity="0.5" d="M970.598 5.68268L846.797 93.1338" stroke="#0C234650" stroke-width="2.1221"
        stroke-miterlimit="10" />
      <path opacity="0.5" d="M962.554 0L838.752 87.4511" stroke="#0C234650" stroke-width="2.1221"
        stroke-miterlimit="10" />
    </g>
    <g opacity="0.5">
      <path opacity="0.5" d="M880.589 821.549L756.806 909" stroke="#0C234650" stroke-width="2.1221"
        stroke-miterlimit="10" />
      <path opacity="0.5" d="M872.563 815.866L748.762 903.317" stroke="#0C234650" stroke-width="2.1221"
        stroke-miterlimit="10" />
      <path opacity="0.5" d="M864.518 810.197L740.717 897.634" stroke="#0C234650" stroke-width="2.1221"
        stroke-miterlimit="10" />
      <path opacity="0.5" d="M856.474 804.514L732.672 891.965" stroke="#0C234650" stroke-width="2.1221"
        stroke-miterlimit="10" />
      <path opacity="0.5" d="M848.429 798.832L724.627 886.283" stroke="#0C234650" stroke-width="2.1221"
        stroke-miterlimit="10" />
      <path opacity="0.5" d="M840.384 793.149L716.582 880.6" stroke="#0C234650" stroke-width="2.1221"
        stroke-miterlimit="10" />
      <path opacity="0.5" d="M832.339 787.466L708.538 874.917" stroke="#0C234650" stroke-width="2.1221"
        stroke-miterlimit="10" />
      <path opacity="0.5" d="M824.294 781.784L700.493 869.235" stroke="#0C234650" stroke-width="2.1221"
        stroke-miterlimit="10" />
      <path opacity="0.5" d="M816.25 776.101L692.448 863.552" stroke="#0C234650" stroke-width="2.1221"
        stroke-miterlimit="10" />
      <path opacity="0.5" d="M808.205 770.418L684.403 857.869" stroke="#0C234650" stroke-width="2.1221"
        stroke-miterlimit="10" />
      <path opacity="0.5" d="M800.16 764.736L676.358 852.187" stroke="#0C234650" stroke-width="2.1221"
        stroke-miterlimit="10" />
      <path opacity="0.5" d="M792.115 759.053L668.314 846.504" stroke="#0C234650" stroke-width="2.1221"
        stroke-miterlimit="10" />
      <path opacity="0.5" d="M784.07 753.37L660.269 840.821" stroke="#0C234650" stroke-width="2.1221"
        stroke-miterlimit="10" />
      <path opacity="0.5" d="M776.026 747.688L652.224 835.139" stroke="#0C234650" stroke-width="2.1221"
        stroke-miterlimit="10" />
      <path opacity="0.5" d="M767.981 742.005L644.179 829.456" stroke="#0C234650" stroke-width="2.1221"
        stroke-miterlimit="10" />
      <path opacity="0.5" d="M759.936 736.322L636.134 823.773" stroke="#0C234650" stroke-width="2.1221"
        stroke-miterlimit="10" />
      <path opacity="0.5" d="M751.891 730.639L628.09 818.09" stroke="#0C234650" stroke-width="2.1221"
        stroke-miterlimit="10" />
      <path opacity="0.5" d="M743.846 724.957L620.064 812.408" stroke="#0C234650" stroke-width="2.1221"
        stroke-miterlimit="10" />
      <path opacity="0.5" d="M735.821 719.288L612.019 806.725" stroke="#0C234650" stroke-width="2.1221"
        stroke-miterlimit="10" />
      <path opacity="0.5" d="M727.776 713.605L603.974 801.042" stroke="#0C234650" stroke-width="2.1221"
        stroke-miterlimit="10" />
      <path opacity="0.5" d="M719.731 707.922L595.93 795.373" stroke="#0C234650" stroke-width="2.1221"
        stroke-miterlimit="10" />
    </g>
    <g opacity="0.81">
      <g opacity="0.81">
        <path opacity="0.81"
          d="M1644.15 191.253C1756.55 84.1797 1756.55 -89.4207 1644.15 -196.494C1531.74 -303.568 1349.5 -303.568 1237.1 -196.494C1124.7 -89.4208 1124.7 84.1797 1237.1 191.253C1349.5 298.327 1531.74 298.327 1644.15 191.253Z"
          stroke="#0C234650" stroke-width="1.0531" stroke-linecap="round" stroke-linejoin="round" />
      </g>
      <g opacity="0.81">
        <path opacity="0.81"
          d="M1440.63 261.068C1593.52 261.068 1717.46 143.005 1717.46 -2.6337C1717.46 -148.272 1593.52 -266.335 1440.63 -266.335C1287.75 -266.335 1163.81 -148.272 1163.81 -2.6337C1163.81 143.005 1287.75 261.068 1440.63 261.068Z"
          stroke="#0C234650" stroke-width="1.1458" stroke-linecap="round" stroke-linejoin="round" />
      </g>
      <g opacity="0.81">
        <path opacity="0.81"
          d="M1628.6 176.445C1732.42 77.5499 1732.42 -82.7911 1628.6 -181.686C1524.78 -280.582 1356.46 -280.582 1252.64 -181.686C1148.83 -82.7911 1148.83 77.5499 1252.64 176.445C1356.46 275.34 1524.78 275.34 1628.6 176.445Z"
          stroke="#0C234650" stroke-width="1.2385" stroke-linecap="round" stroke-linejoin="round" />
      </g>
      <g opacity="0.81">
        <path opacity="0.81"
          d="M1440.63 240.126C1581.38 240.126 1695.48 131.439 1695.48 -2.63371C1695.48 -136.706 1581.38 -245.393 1440.63 -245.393C1299.89 -245.393 1185.79 -136.706 1185.79 -2.63371C1185.79 131.439 1299.89 240.126 1440.63 240.126Z"
          stroke="#0C234650" stroke-width="1.3312" stroke-linecap="round" stroke-linejoin="round" />
      </g>
      <g opacity="0.81">
        <path opacity="0.81"
          d="M1440.63 229.664C1575.31 229.664 1684.49 125.661 1684.49 -2.63371C1684.49 -130.928 1575.31 -234.932 1440.63 -234.932C1305.95 -234.932 1196.77 -130.928 1196.77 -2.63371C1196.77 125.661 1305.95 229.664 1440.63 229.664Z"
          stroke="#0C234650" stroke-width="1.4239" stroke-linecap="round" stroke-linejoin="round" />
      </g>
      <g opacity="0.81">
        <path opacity="0.81"
          d="M1440.63 219.184C1569.24 219.184 1673.49 119.873 1673.49 -2.63371C1673.49 -125.14 1569.24 -224.452 1440.63 -224.452C1312.03 -224.452 1207.78 -125.14 1207.78 -2.63371C1207.78 119.873 1312.03 219.184 1440.63 219.184Z"
          stroke="#0C234650" stroke-width="1.5166" stroke-linecap="round" stroke-linejoin="round" />
      </g>
      <g opacity="0.81">
        <path opacity="0.81"
          d="M1440.63 208.704C1563.16 208.704 1662.49 114.085 1662.49 -2.63365C1662.49 -119.352 1563.16 -213.972 1440.63 -213.972C1318.11 -213.972 1218.78 -119.352 1218.78 -2.63365C1218.78 114.085 1318.11 208.704 1440.63 208.704Z"
          stroke="#0C234650" stroke-width="1.6093" stroke-linecap="round" stroke-linejoin="round" />
      </g>
      <g opacity="0.81">
        <path opacity="0.81"
          d="M1440.63 198.243C1557.1 198.243 1651.51 108.307 1651.51 -2.6337C1651.51 -113.575 1557.1 -203.51 1440.63 -203.51C1324.17 -203.51 1229.76 -113.575 1229.76 -2.6337C1229.76 108.307 1324.17 198.243 1440.63 198.243Z"
          stroke="#0C234650" stroke-width="1.702" stroke-linecap="round" stroke-linejoin="round" />
      </g>
      <g opacity="0.81">
        <path opacity="0.81"
          d="M1440.63 187.762C1551.02 187.762 1640.51 102.519 1640.51 -2.63374C1640.51 -107.787 1551.02 -193.03 1440.63 -193.03C1330.25 -193.03 1240.76 -107.787 1240.76 -2.63374C1240.76 102.519 1330.25 187.762 1440.63 187.762Z"
          stroke="#0C234650" stroke-width="1.7948" stroke-linecap="round" stroke-linejoin="round" />
      </g>
      <g opacity="0.81">
        <path opacity="0.81"
          d="M1440.63 177.301C1544.95 177.301 1629.52 96.7414 1629.52 -2.63368C1629.52 -102.009 1544.95 -182.568 1440.63 -182.568C1336.31 -182.568 1251.74 -102.009 1251.74 -2.63368C1251.74 96.7414 1336.31 177.301 1440.63 177.301Z"
          stroke="#0C234650" stroke-width="1.8875" stroke-linecap="round" stroke-linejoin="round" />
      </g>
      <g opacity="0.81">
        <path opacity="0.81"
          d="M1440.63 166.821C1538.88 166.821 1618.52 90.9534 1618.52 -2.63371C1618.52 -96.2208 1538.88 -172.088 1440.63 -172.088C1342.39 -172.088 1262.75 -96.2208 1262.75 -2.63371C1262.75 90.9534 1342.39 166.821 1440.63 166.821Z"
          stroke="#0C234650" stroke-width="1.9802" stroke-linecap="round" stroke-linejoin="round" />
      </g>
      <g opacity="0.81">
        <path opacity="0.81"
          d="M1440.63 156.341C1532.8 156.341 1607.52 85.1654 1607.52 -2.63373C1607.52 -90.4328 1532.8 -161.608 1440.63 -161.608C1348.47 -161.608 1273.75 -90.4328 1273.75 -2.63373C1273.75 85.1654 1348.47 156.341 1440.63 156.341Z"
          stroke="#0C234650" stroke-width="2.0729" stroke-linecap="round" stroke-linejoin="round" />
      </g>
      <g opacity="0.81">
        <path opacity="0.81"
          d="M1446.24 145.882C1532.29 142.962 1599.56 74.143 1596.5 -7.82905C1593.43 -89.8011 1521.19 -153.886 1435.13 -150.966C1349.08 -148.046 1281.81 -79.227 1284.87 2.74505C1287.94 84.7171 1360.18 148.802 1446.24 145.882Z"
          stroke="#0C234650" stroke-width="2.1656" stroke-linecap="round" stroke-linejoin="round" />
      </g>
      <g opacity="0.81">
        <path opacity="0.81"
          d="M1440.63 135.399C1520.66 135.399 1585.54 73.5996 1585.54 -2.63373C1585.54 -78.8671 1520.66 -140.666 1440.63 -140.666C1360.61 -140.666 1295.73 -78.8671 1295.73 -2.63373C1295.73 73.5996 1360.61 135.399 1440.63 135.399Z"
          stroke="#0C234650" stroke-width="2.2583" stroke-linecap="round" stroke-linejoin="round" />
      </g>
      <g opacity="0.81">
        <path opacity="0.81"
          d="M1445.45 124.952C1519.37 122.444 1577.16 63.3296 1574.52 -7.08357C1571.89 -77.4968 1509.83 -132.545 1435.92 -130.036C1362 -127.528 1304.21 -68.4137 1306.85 1.99948C1309.48 72.4127 1371.53 127.461 1445.45 124.952Z"
          stroke="#0C234650" stroke-width="2.351" stroke-linecap="round" stroke-linejoin="round" />
      </g>
      <g opacity="0.81">
        <path opacity="0.81"
          d="M1440.63 114.457C1508.52 114.457 1563.55 62.0338 1563.55 -2.6337C1563.55 -67.3012 1508.52 -119.725 1440.63 -119.725C1372.75 -119.725 1317.72 -67.3012 1317.72 -2.6337C1317.72 62.0338 1372.75 114.457 1440.63 114.457Z"
          stroke="#0C234650" stroke-width="2.4437" stroke-linecap="round" stroke-linejoin="round" />
      </g>
      <g opacity="0.81">
        <path opacity="0.81"
          d="M1444.67 104.005C1506.44 101.909 1554.74 52.5068 1552.53 -6.33739C1550.33 -65.1816 1498.47 -111.185 1436.7 -109.089C1374.93 -106.993 1326.63 -57.5909 1328.84 1.25331C1331.04 60.0975 1382.9 106.101 1444.67 104.005Z"
          stroke="#0C234650" stroke-width="2.5364" stroke-linecap="round" stroke-linejoin="round" />
      </g>
      <g opacity="0.81">
        <path opacity="0.81"
          d="M1440.63 93.5155C1496.38 93.5155 1541.57 50.468 1541.57 -2.63368C1541.57 -55.7354 1496.38 -98.7828 1440.63 -98.7828C1384.89 -98.7828 1339.7 -55.7354 1339.7 -2.63368C1339.7 50.468 1384.89 93.5155 1440.63 93.5155Z"
          stroke="#0C234650" stroke-width="2.6292" stroke-linecap="round" stroke-linejoin="round" />
      </g>
      <g opacity="0.81">
        <path opacity="0.81"
          d="M1443.89 83.0757C1493.53 81.3913 1532.33 41.6935 1530.56 -5.59185C1528.8 -52.8772 1487.12 -89.8441 1437.48 -88.1597C1387.84 -86.4754 1349.04 -46.7776 1350.81 0.507787C1352.57 47.7932 1394.25 84.76 1443.89 83.0757Z"
          stroke="#0C234650" stroke-width="2.7219" stroke-linecap="round" stroke-linejoin="round" />
      </g>
      <g opacity="0.81">
        <path opacity="0.81"
          d="M1440.63 72.5738C1484.24 72.5738 1519.58 38.9023 1519.58 -2.63364C1519.58 -44.1695 1484.24 -77.841 1440.63 -77.841C1397.03 -77.841 1361.68 -44.1695 1361.68 -2.63364C1361.68 38.9023 1397.03 72.5738 1440.63 72.5738Z"
          stroke="#0C234650" stroke-width="2.8146" stroke-linecap="round" stroke-linejoin="round" />
      </g>
      <g opacity="0.81">
        <path opacity="0.81"
          d="M1443.1 62.1465C1480.61 60.8739 1509.93 30.8802 1508.59 -4.84631C1507.26 -40.5728 1475.77 -68.5032 1438.27 -67.2306C1400.76 -65.9579 1371.44 -35.9642 1372.78 -0.237718C1374.11 35.4888 1405.6 63.4192 1443.1 62.1465Z"
          stroke="#0C234650" stroke-width="2.9073" stroke-linecap="round" stroke-linejoin="round" />
      </g>
      <g opacity="0.81">
        <path opacity="0.81"
          d="M1440.63 51.6137C1472.08 51.6137 1497.58 27.3264 1497.58 -2.63364C1497.58 -32.5936 1472.08 -56.881 1440.63 -56.881C1409.18 -56.881 1383.69 -32.5936 1383.69 -2.63364C1383.69 27.3264 1409.18 51.6137 1440.63 51.6137Z"
          stroke="#0C234650" stroke-width="3" stroke-linecap="round" stroke-linejoin="round" />
      </g>
    </g>
    <g opacity="0.81">
      <g opacity="0.81">
        <path opacity="0.81" d="M1265.43 622.4L629.779 1227.92" stroke="#0C234650" stroke-width="2"
          stroke-miterlimit="10" />
        <path opacity="0.81" d="M1280.64 622.4L644.986 1227.92" stroke="#0C234650" stroke-width="2"
          stroke-miterlimit="10" />
        <path opacity="0.81" d="M1295.87 622.4L660.192 1227.92" stroke="#0C234650" stroke-width="2"
          stroke-miterlimit="10" />
        <path opacity="0.81" d="M1311.07 622.4L675.418 1227.92" stroke="#0C234650" stroke-width="2"
          stroke-miterlimit="10" />
        <path opacity="0.81" d="M1326.28 622.4L690.624 1227.92" stroke="#0C234650" stroke-width="2"
          stroke-miterlimit="10" />
        <path opacity="0.81" d="M1341.5 622.4L705.83 1227.92" stroke="#0C234650" stroke-width="2"
          stroke-miterlimit="10" />
        <path opacity="0.81" d="M1356.71 622.4L721.056 1227.92" stroke="#0C234650" stroke-width="2"
          stroke-miterlimit="10" />
        <path opacity="0.81" d="M1371.92 622.4L736.262 1227.92" stroke="#0C234650" stroke-width="2"
          stroke-miterlimit="10" />
        <path opacity="0.81" d="M1387.14 622.4L751.488 1227.92" stroke="#0C234650" stroke-width="2"
          stroke-miterlimit="10" />
        <path opacity="0.81" d="M1402.35 622.4L766.694 1227.92" stroke="#0C234650" stroke-width="2"
          stroke-miterlimit="10" />
        <path opacity="0.81" d="M1417.57 622.4L781.901 1227.92" stroke="#0C234650" stroke-width="2"
          stroke-miterlimit="10" />
        <path opacity="0.81" d="M1432.78 622.4L797.126 1227.92" stroke="#0C234650" stroke-width="2"
          stroke-miterlimit="10" />
        <path opacity="0.81" d="M1447.99 622.4L812.333 1227.92" stroke="#0C234650" stroke-width="2"
          stroke-miterlimit="10" />
        <path opacity="0.81" d="M1463.21 622.4L827.539 1227.92" stroke="#0C234650" stroke-width="2"
          stroke-miterlimit="10" />
        <path opacity="0.81" d="M1478.42 622.4L842.765 1227.92" stroke="#0C234650" stroke-width="2"
          stroke-miterlimit="10" />
        <path opacity="0.81" d="M1493.63 622.4L857.971 1227.92" stroke="#0C234650" stroke-width="2"
          stroke-miterlimit="10" />
        <path opacity="0.81" d="M1508.85 622.4L873.178 1227.92" stroke="#0C234650" stroke-width="2"
          stroke-miterlimit="10" />
        <path opacity="0.81" d="M1524.06 622.4L888.403 1227.92" stroke="#0C234650" stroke-width="2"
          stroke-miterlimit="10" />
        <path opacity="0.81" d="M1539.26 622.4L903.61 1227.92" stroke="#0C234650" stroke-width="2"
          stroke-miterlimit="10" />
        <path opacity="0.81" d="M1554.49 622.4L918.835 1227.92" stroke="#0C234650" stroke-width="2"
          stroke-miterlimit="10" />
        <path opacity="0.81" d="M1569.7 622.4L934.042 1227.92" stroke="#0C234650" stroke-width="2"
          stroke-miterlimit="10" />
        <path opacity="0.81" d="M1584.92 622.4L949.248 1227.92" stroke="#0C234650" stroke-width="2"
          stroke-miterlimit="10" />
        <path opacity="0.81" d="M1600.13 622.4L964.474 1227.92" stroke="#0C234650" stroke-width="2"
          stroke-miterlimit="10" />
        <path opacity="0.81" d="M1615.33 622.4L979.68 1227.92" stroke="#0C234650" stroke-width="2"
          stroke-miterlimit="10" />
        <path opacity="0.81" d="M1630.56 622.4L994.886 1227.92" stroke="#0C234650" stroke-width="2"
          stroke-miterlimit="10" />
        <path opacity="0.81" d="M1645.77 622.4L1010.11 1227.92" stroke="#0C234650" stroke-width="2"
          stroke-miterlimit="10" />
        <path opacity="0.81" d="M1660.97 622.4L1025.32 1227.92" stroke="#0C234650" stroke-width="2"
          stroke-miterlimit="10" />
        <path opacity="0.81" d="M1676.2 622.4L1040.52 1227.92" stroke="#0C234650" stroke-width="2"
          stroke-miterlimit="10" />
        <path opacity="0.81" d="M1691.4 622.4L1055.75 1227.92" stroke="#0C234650" stroke-width="2"
          stroke-miterlimit="10" />
        <path opacity="0.81" d="M1706.61 622.4L1070.96 1227.92" stroke="#0C234650" stroke-width="2"
          stroke-miterlimit="10" />
        <path opacity="0.81" d="M1721.84 622.4L1086.18 1227.92" stroke="#0C234650" stroke-width="2"
          stroke-miterlimit="10" />
        <path opacity="0.81" d="M1737.04 622.4L1101.39 1227.92" stroke="#0C234650" stroke-width="2"
          stroke-miterlimit="10" />
        <path opacity="0.81" d="M1752.27 622.4L1116.6 1227.92" stroke="#0C234650" stroke-width="2"
          stroke-miterlimit="10" />
        <path opacity="0.81" d="M1767.48 622.4L1131.82 1227.92" stroke="#0C234650" stroke-width="2"
          stroke-miterlimit="10" />
        <path opacity="0.81" d="M1782.68 622.4L1147.03 1227.92" stroke="#0C234650" stroke-width="2"
          stroke-miterlimit="10" />
        <path opacity="0.81" d="M1797.91 622.4L1162.23 1227.92" stroke="#0C234650" stroke-width="2"
          stroke-miterlimit="10" />
        <path opacity="0.81" d="M1813.11 622.4L1177.46 1227.92" stroke="#0C234650" stroke-width="2"
          stroke-miterlimit="10" />
        <path opacity="0.81" d="M1828.32 622.4L1192.67 1227.92" stroke="#0C234650" stroke-width="2"
          stroke-miterlimit="10" />
        <path opacity="0.81" d="M1843.55 622.4L1207.87 1227.92" stroke="#0C234650" stroke-width="2"
          stroke-miterlimit="10" />
        <path opacity="0.81" d="M1858.75 622.4L1223.1 1227.92" stroke="#0C234650" stroke-width="2"
          stroke-miterlimit="10" />
        <path opacity="0.81" d="M1873.96 622.4L1238.3 1227.92" stroke="#0C234650" stroke-width="2"
          stroke-miterlimit="10" />
        <path opacity="0.81" d="M1889.18 622.4L1253.53 1227.92" stroke="#0C234650" stroke-width="2"
          stroke-miterlimit="10" />
        <path opacity="0.81" d="M1904.39 622.4L1268.74 1227.92" stroke="#0C234650" stroke-width="2"
          stroke-miterlimit="10" />
        <path opacity="0.81" d="M1919.62 622.4L1283.94 1227.92" stroke="#0C234650" stroke-width="2"
          stroke-miterlimit="10" />
        <path opacity="0.81" d="M1934.82 622.4L1299.17 1227.92" stroke="#0C234650" stroke-width="2"
          stroke-miterlimit="10" />
      </g>
    </g>
    <g opacity="0.72">
      <path opacity="0.5" d="M-30.6176 308.192L-331.486 595.824L-30.6175 883.457L270.251 595.824L-30.6176 308.192Z"
        stroke="#0C234650" stroke-width="50" stroke-miterlimit="10" />
      <path opacity="0.5" d="M1440.62 21.6197L1139.22 308.725L1440.62 595.83L1742.01 308.725L1440.62 21.6197Z"
        stroke="#0C234650" stroke-width="50" stroke-miterlimit="10" />
      <path opacity="0.5" d="M720.617 703.451L419.223 990.557L720.617 1277.66L1022.01 990.557L720.617 703.451Z"
        stroke="#0C234650" stroke-width="30" stroke-miterlimit="10" />
    </g>
    <path opacity="0.5"
      d="M153.658 622.052C182.285 649.322 182.285 693.547 153.658 720.835L-165.37 1024.74C-193.997 1052.01 -240.422 1052.01 -269.069 1024.74C-297.696 997.468 -297.696 953.243 -269.069 925.955L49.9584 622.052C78.6048 594.782 125.03 594.782 153.658 622.052Z"
      fill="url(#paint0_linear_6:167)" />
    <path opacity="0.5"
      d="M488.16 594.252C519.283 623.9 519.283 671.947 488.16 701.594L159.283 1014.86C128.16 1044.51 77.7216 1044.51 46.5984 1014.86C15.4752 985.213 15.4752 937.166 46.5984 907.518L375.456 594.252C406.579 564.604 457.037 564.604 488.16 594.252Z"
      fill="#0C234650" />
    <path opacity="0.5"
      d="M476.198 800.487C491.021 814.607 491.021 837.487 476.198 851.588L327.13 993.59C312.307 1007.71 288.288 1007.71 273.485 993.59C258.662 979.47 258.662 956.59 273.485 942.488L422.554 800.487C437.376 786.386 461.395 786.386 476.198 800.487Z"
      fill="#0C234650" />
    <path opacity="0.5"
      d="M353.99 724.493C373.805 743.386 373.805 774.003 353.99 792.878L57.7535 1075.07C37.9199 1093.96 5.77913 1093.96 -14.0353 1075.07C-33.8497 1056.18 -33.8497 1025.56 -14.0353 1006.69L282.202 724.493C302.016 705.6 334.157 705.6 353.99 724.493Z"
      fill="#0C234650" />
    <path opacity="0.5"
      d="M1121.93 422.072C1090.81 392.425 1090.81 344.377 1121.93 314.73L1450.79 1.46322C1481.91 -28.1844 1532.35 -28.1844 1563.48 1.46322C1594.6 31.1109 1594.6 79.158 1563.48 108.806L1234.62 422.072C1203.49 451.702 1153.06 451.702 1121.93 422.072Z"
      fill="#0C234650" />
    <path opacity="0.5"
      d="M1115.85 161.535C1101.02 147.415 1101.02 124.535 1115.85 110.433L1264.92 -31.5681C1279.74 -45.6878 1303.76 -45.6878 1318.56 -31.5681C1333.38 -17.4484 1333.38 5.43204 1318.56 19.5334L1169.49 161.535C1154.69 175.636 1130.67 175.636 1115.85 161.535Z"
      fill="url(#paint5_linear_6:167)" />
    <path opacity="0.5"
      d="M1358.55 423.627C1343.73 409.507 1343.73 386.627 1358.55 372.525L1507.62 230.524C1522.44 216.404 1546.46 216.404 1561.27 230.524C1576.09 244.644 1576.09 267.524 1561.27 281.625L1412.2 423.627C1397.38 437.747 1373.36 437.747 1358.55 423.627Z"
      fill="#0C234650" />
    <g opacity="0.49">
      <path opacity="0.49"
        d="M317.069 160.877C321.395 160.877 324.902 157.536 324.902 153.414C324.902 149.293 321.395 145.952 317.069 145.952C312.743 145.952 309.235 149.293 309.235 153.414C309.235 157.536 312.743 160.877 317.069 160.877Z"
        stroke="#0C234650" stroke-width="2" stroke-miterlimit="10" stroke-linecap="round" stroke-linejoin="round" />
      <path opacity="0.49"
        d="M853.018 660.113C853.018 664.228 849.504 667.576 845.184 667.576C840.864 667.576 837.35 664.228 837.35 660.113C837.35 655.998 840.864 652.651 845.184 652.651C849.504 652.651 853.018 655.998 853.018 660.113Z"
        stroke="#0C234650" stroke-width="2" stroke-miterlimit="10" stroke-linecap="round" stroke-linejoin="round" />
      <path opacity="0.49"
        d="M608.064 291.447C608.064 295.562 604.55 298.909 600.23 298.909C595.91 298.909 592.397 295.562 592.397 291.447C592.397 287.332 595.91 283.985 600.23 283.985C604.57 283.985 608.064 287.314 608.064 291.447Z"
        stroke="#0C234650" stroke-width="2" stroke-miterlimit="10" stroke-linecap="round" stroke-linejoin="round" />
      <path opacity="0.49"
        d="M57.4848 534.573C57.4848 538.688 53.9712 542.035 49.6512 542.035C45.3312 542.035 41.8176 538.688 41.8176 534.573C41.8176 530.457 45.3312 527.11 49.6512 527.11C53.9904 527.11 57.4848 530.457 57.4848 534.573Z"
        stroke="#0C234650" stroke-width="2" stroke-miterlimit="10" stroke-linecap="round" stroke-linejoin="round" />
      <path opacity="0.49"
        d="M136.781 315.9C136.781 320.016 133.267 323.363 128.947 323.363C124.627 323.363 121.114 320.016 121.114 315.9C121.114 311.785 124.627 308.438 128.947 308.438C133.267 308.438 136.781 311.785 136.781 315.9Z"
        stroke="#0C234650" stroke-width="2" stroke-miterlimit="10" stroke-linecap="round" stroke-linejoin="round" />
      <g opacity="0.49">
        <path opacity="0.49" d="M754.291 217.337V230.396" stroke="#0C234650" stroke-width="2" stroke-miterlimit="10"
          stroke-linecap="round" stroke-linejoin="round" />
        <path opacity="0.49" d="M761.146 223.867H747.456" stroke="#0C234650" stroke-width="2" stroke-miterlimit="10"
          stroke-linecap="round" stroke-linejoin="round" />
      </g>
      <g opacity="0.49">
        <path opacity="0.49" d="M1330.37 653.602V666.643" stroke="#0C234650" stroke-width="2" stroke-miterlimit="10"
          stroke-linecap="round" stroke-linejoin="round" />
        <path opacity="0.49" d="M1337.22 660.113H1323.53" stroke="#0C234650" stroke-width="2" stroke-miterlimit="10"
          stroke-linecap="round" stroke-linejoin="round" />
      </g>
      <g opacity="0.49">
        <path opacity="0.49" d="M364.051 535.45V548.491" stroke="#0C234650" stroke-width="2" stroke-miterlimit="10"
          stroke-linecap="round" stroke-linejoin="round" />
        <path opacity="0.49" d="M370.906 541.962H357.216" stroke="#0C234650" stroke-width="2" stroke-miterlimit="10"
          stroke-linecap="round" stroke-linejoin="round" />
      </g>
      <g opacity="0.49">
        <g opacity="0.49">
          <path opacity="0.49" d="M1064.16 809.577V822.618" stroke="#0C234650" stroke-width="2" stroke-miterlimit="10"
            stroke-linecap="round" stroke-linejoin="round" />
          <path opacity="0.49" d="M1071 816.088H1057.31" stroke="#0C234650" stroke-width="2" stroke-miterlimit="10"
            stroke-linecap="round" stroke-linejoin="round" />
        </g>
        <g opacity="0.49">
          <path opacity="0.49" d="M1022.76 809.577V822.618" stroke="#0C234650" stroke-width="2" stroke-miterlimit="10"
            stroke-linecap="round" stroke-linejoin="round" />
          <path opacity="0.49" d="M1029.6 816.088H1015.91" stroke="#0C234650" stroke-width="2" stroke-miterlimit="10"
            stroke-linecap="round" stroke-linejoin="round" />
        </g>
        <g opacity="0.49">
          <path opacity="0.49" d="M981.37 809.577V822.618" stroke="#0C234650" stroke-width="2" stroke-miterlimit="10"
            stroke-linecap="round" stroke-linejoin="round" />
          <path opacity="0.49" d="M988.205 816.088H974.515" stroke="#0C234650" stroke-width="2" stroke-miterlimit="10"
            stroke-linecap="round" stroke-linejoin="round" />
        </g>
      </g>
      <g opacity="0.49">
        <g opacity="0.49">
          <path opacity="0.49" d="M136.781 226.134V239.175" stroke="#0C234650" stroke-width="2" stroke-miterlimit="10"
            stroke-linecap="round" stroke-linejoin="round" />
          <path opacity="0.49" d="M143.616 232.664H129.926" stroke="#0C234650" stroke-width="2" stroke-miterlimit="10"
            stroke-linecap="round" stroke-linejoin="round" />
        </g>
        <g opacity="0.49">
          <path opacity="0.49" d="M95.3856 226.134V239.175" stroke="#0C234650" stroke-width="2" stroke-miterlimit="10"
            stroke-linecap="round" stroke-linejoin="round" />
          <path opacity="0.49" d="M102.24 232.664H88.5312" stroke="#0C234650" stroke-width="2" stroke-miterlimit="10"
            stroke-linecap="round" stroke-linejoin="round" />
        </g>
        <g opacity="0.49">
          <path opacity="0.49" d="M53.9905 226.134V239.175" stroke="#0C234650" stroke-width="2" stroke-miterlimit="10"
            stroke-linecap="round" stroke-linejoin="round" />
          <path opacity="0.49" d="M60.8449 232.664H47.1553" stroke="#0C234650" stroke-width="2" stroke-miterlimit="10"
            stroke-linecap="round" stroke-linejoin="round" />
        </g>
      </g>
      <path opacity="0.49" d="M526.848 497.737L537.504 480.16H516.192L526.848 497.737Z" stroke="#0C234650"
        stroke-width="2" stroke-miterlimit="10" stroke-linecap="round" stroke-linejoin="round" />
      <path opacity="0.49" d="M1036.45 230.396L1025.8 247.972H1047.11L1036.45 230.396Z" stroke="#0C234650"
        stroke-width="2" stroke-miterlimit="10" stroke-linecap="round" stroke-linejoin="round" />
      <path opacity="0.49"
        d="M510.298 764.017C514.944 759.591 523.085 767.346 527.731 762.92C532.378 758.494 524.237 750.739 528.883 746.313C533.53 741.887 541.67 749.642 546.317 745.216C550.963 740.789 542.822 733.035 547.45 728.608C552.096 724.182 560.237 731.937 564.883 727.511C569.53 723.085 561.389 715.33 566.035 710.886C570.682 706.46 578.822 714.214 583.488 709.788"
        stroke="#0C234650" stroke-width="2" stroke-miterlimit="10" stroke-linecap="round" stroke-linejoin="round" />
      <path opacity="0.49"
        d="M915.015 727.859C919.661 723.433 927.802 731.187 932.448 726.761C937.095 722.335 928.954 714.58 933.6 710.154C938.247 705.728 946.387 713.483 951.034 709.057C955.68 704.631 947.539 696.876 952.166 692.45C956.813 688.024 964.954 695.778 969.6 691.352C974.247 686.926 966.106 679.171 970.752 674.727C975.398 670.301 983.539 678.056 988.205 673.63"
        stroke="#0C234650" stroke-width="2" stroke-miterlimit="10" stroke-linecap="round" stroke-linejoin="round" />
      <path opacity="0.49"
        d="M937.92 225.805C942.566 221.379 950.707 229.134 955.354 224.708C960 220.282 951.859 212.527 956.505 208.101C961.152 203.675 969.293 211.429 973.939 207.003C978.585 202.577 970.445 194.822 975.072 190.396C979.718 185.97 987.859 193.725 992.505 189.299C997.152 184.873 989.011 177.118 993.658 172.673C998.304 168.247 1006.44 176.002 1011.11 171.576"
        stroke="#0C234650" stroke-width="2" stroke-miterlimit="10" stroke-linecap="round" stroke-linejoin="round" />
    </g>
  </g>
  <defs>    
    <clipPath id="clip0_6:167">
      <rect width="1440" height="909" fill="#0C234650" />
    </clipPath>
  </defs>
</svg>
